<svg width="104" height="125" viewBox="0 0 104 125" fill="none" xmlns="http://www.w3.org/2000/svg">
<path d="M53.366 99.0431C53.5916 100.742 53.8009 102.336 54.0428 104.162C54.6047 104.196 55.1681 104.196 55.73 104.162C61.0694 103.526 65.3233 105.681 68.7565 109.489C71.0984 112.136 73.282 114.919 75.2959 117.822C76.0935 119.045 76.631 120.419 76.8752 121.858C77.2022 123.426 76.3619 124.14 74.7957 124.274C60.0558 125.438 45.2898 124.841 30.5336 124.89C28.0862 124.869 25.6498 124.561 23.2749 123.971C20.1098 123.214 19.4068 120.28 21.7381 118.024C23.1099 116.704 24.5657 115.473 26.0966 114.34C32.5543 109.547 39.8719 106.731 47.7225 105.211C49.0304 104.96 49.5601 104.543 49.4881 103.135C49.4195 101.808 49.7366 100.461 49.8837 99.1181L37.9984 95.1635C37.8349 96.1415 37.6714 97.0772 37.5145 98.0194C37.4 98.6714 37.4491 99.4832 37.0632 99.8777C36.5466 100.412 35.5461 101.025 35.0033 100.856C34.4605 100.686 33.9407 99.5517 33.9734 98.8507C34.0518 97.3021 34.4802 95.7731 34.7516 94.3288C34.5456 94.1365 34.4802 94.0191 34.3919 94.0028C30.9489 93.3312 30.1838 91.6685 32.1848 88.7865C33.3586 87.0912 33.8001 84.7765 36.0692 83.9125C36.1739 83.8734 36.1673 82.9182 35.9483 82.7682C33.8131 81.2978 31.7205 79.7069 29.4088 78.5299C26.9239 77.278 24.8312 75.7131 23.6869 73.1962C20.7997 66.8975 18.8771 60.3511 19.6847 53.3319C20.8095 43.5676 23.2814 34.2466 29.3108 26.1842C32.0312 22.5491 35.5984 20.1365 39.7346 18.3597C45.6201 15.8135 51.7017 15.3734 58.3032 16.1591C58.255 15.0607 58.2627 13.9606 58.3261 12.863C58.4499 11.5862 58.6818 10.3222 59.0193 9.08444C59.6733 6.73709 60.4384 4.41583 61.2297 2.10761C61.6449 0.891559 62.24 -0.304934 63.8814 0.0699887C65.0716 0.343845 65.4149 1.47187 64.9669 3.36931C64.6661 4.62449 64.313 5.86988 64.0972 6.7697C68.7631 8.07378 73.3635 9.16268 77.8005 10.7015C81.747 12.0708 85.5661 13.8508 89.3491 15.6374C96.2155 18.8976 100.015 24.8834 101.885 31.7656C107.202 51.3268 102.843 71.3868 84.8304 85.2329C77.8665 90.5725 70.0732 94.7398 61.7593 97.5695C59.5261 98.3324 57.0804 98.4726 54.7295 98.8931C54.3142 98.929 53.8924 98.9714 53.366 99.0431ZM54.6739 54.7044C54.7491 54.5577 54.8243 54.411 54.9027 54.2675L53.1175 51.5909C52.0189 49.938 52.0123 48.3079 53.366 46.8147C56.263 43.6197 56.8875 40.3628 53.9578 36.7994C52.8363 35.4399 53.1698 33.9956 54.4712 32.9034C56.3872 31.2994 58.3948 29.79 60.3566 28.2414C61.4226 27.397 62.5571 26.6113 63.5315 25.6886C64.6072 24.6519 64.5419 21.6036 63.4432 21.1961C59.8923 19.892 56.4493 18.213 52.4865 18.2619C46.6813 18.347 41.0245 20.103 36.1968 23.3185C34.1565 24.6551 32.466 26.621 30.8737 28.512C29.4742 30.1747 29.6475 32.4242 30.9031 34.2695C31.4851 35.1204 32.1129 35.9419 32.7047 36.7896C34.9151 39.9455 34.8987 42.7101 32.4333 45.6802C30.1445 48.422 29.7162 51.6333 29.7391 54.9848C29.7621 55.2704 29.8433 55.5484 29.9776 55.8018C30.112 56.0552 30.2967 56.2786 30.5205 56.4584C32.7112 58.0526 34.9575 59.5751 37.2202 61.0716C38.0507 61.6225 39.0283 62.0496 38.7831 63.2689C38.5379 64.4883 37.861 65.5935 36.4943 65.675C34.9897 65.7946 33.476 65.7256 31.9886 65.4696C28.8922 64.8632 27.7904 65.701 28.0421 68.87C28.0977 69.5905 28.4606 70.2881 28.6961 70.9858C29.023 71.9378 29.5396 72.8507 29.7358 73.8287C30.0235 75.2893 30.5271 76.4369 32.0246 77.0889C34.2774 78.067 36.5826 79.019 38.6719 80.2937C42.1542 82.4161 45.9339 81.4185 49.2265 81.9238C50.2074 79.684 50.9693 77.7181 51.9306 75.8598C52.9115 73.9363 52.9736 73.6755 51.2766 72.3453C50.7955 71.9918 50.2808 71.686 49.7399 71.4325C47.9939 70.549 46.1857 69.7665 44.5084 68.7721C43.8354 68.37 43.348 67.7201 43.1514 66.9627C42.6839 63.8851 41.6147 61.0944 39.6626 58.6623C39.1993 58.1292 38.8019 57.5425 38.479 56.9148C37.6518 55.1087 38.5183 52.8493 40.2512 52.7744C44.4724 52.5983 48.7524 52.1484 52.7872 54.0491C53.4036 54.3038 54.0347 54.5215 54.6771 54.7011L54.6739 54.7044ZM61.1839 80.0818C60.98 79.3869 60.7332 78.7054 60.4449 78.0409C59.1763 75.6577 59.1894 73.1082 59.5523 70.5685C60.1343 66.477 62.5506 64.648 66.4906 65.6782C68.8513 66.3042 70.9995 67.7256 73.2621 68.7428C73.6807 68.9286 74.4033 69.121 74.6387 68.9156C75.515 68.1462 76.2507 67.2105 77.2054 66.1542C73.1968 64.7002 71.1238 61.916 70.8295 58.0298C70.617 55.2162 70.7281 52.2755 72.3826 49.85C74.3085 47.0201 74.1744 44.1153 73.1902 41.1517C72.8629 40.2306 72.7388 39.2499 72.8262 38.2765C72.9137 37.3032 73.2107 36.3601 73.697 35.5116C74.642 33.7609 75.6981 32.0688 76.7117 30.3442C74.4458 27.498 69.0017 23.3902 66.6116 22.8653C67.4159 25.9918 65.2481 27.4296 63.2176 28.9358C61.4749 30.2399 59.719 31.5439 58.0351 32.9034C56.0308 34.5335 55.936 34.6509 57.2733 36.8157C59.0455 39.701 58.7937 42.6612 57.0183 45.0998C55.0564 47.7667 54.5431 49.8565 56.9986 52.3864C57.8978 53.3155 57.6526 54.6294 56.8025 55.6759C56.4662 56.1465 55.9784 56.4879 55.4203 56.6434C54.8622 56.7988 54.2676 56.7588 53.7355 56.5301C53.1172 56.3211 52.5169 56.0627 51.9404 55.7574C48.8473 54.0328 45.4958 53.8991 42.0953 54.1893C40.6141 54.3132 40.3526 54.9652 41.3498 56.0411C43.8152 58.7014 45.0642 61.8214 45.4566 65.4076C45.5481 66.2325 46.4375 67.1551 47.183 67.6898C49.1775 69.0851 51.4336 70.1349 53.3496 71.602C55.2003 73.0267 55.282 74.1808 54.3305 76.3521C53.912 77.2943 53.3791 78.1876 52.9932 79.1428C52.6859 79.9057 52.5257 80.7306 52.1529 82.0412L61.1839 80.0818ZM39.0022 84.1375L38.8844 84.4863C39.1718 84.6864 39.4722 84.8672 39.7836 85.0275C41.7454 85.8686 43.655 86.7587 45.6364 87.5085C50.3415 89.2886 55.0989 89.4646 59.8106 87.5704C63.2405 86.1979 66.6573 84.7699 69.9957 83.1887C74.3313 81.1348 78.4773 78.7418 82.0577 75.4914C85.2227 72.6127 88.2963 69.4829 89.8069 65.525C92.7921 57.7005 95.0188 49.6804 93.9038 41.0735C93.1125 34.9802 91.0526 29.3596 86.4718 25.3724C79.8308 19.5716 71.6345 15.8322 62.8906 14.6137C62.1288 14.5029 61.3408 14.2258 61.1675 15.406C61.0204 16.4166 60.8798 17.2741 62.2531 17.662C71.6993 20.3452 78.4054 26.4287 83.6239 34.5335C89.3884 43.4828 88.6821 52.2201 83.4408 61.0259C79.5858 67.5007 74.4164 72.8441 68.9429 77.9268C66.1666 80.469 62.825 82.3182 59.1926 83.3224C54.7753 84.6265 50.3023 84.8156 45.7868 84.5939C43.5177 84.4928 41.2615 84.294 39.0054 84.1342L39.0022 84.1375ZM35.1995 91.3458L44.3547 94.2799C44.9345 94.4294 45.5054 94.6112 46.0647 94.8244C51.45 97.1978 56.8548 96.7805 62.0863 94.5636C67.0857 92.451 72.1439 90.2895 76.7411 87.4498C86.377 81.4967 94.1098 73.7766 98.0596 62.7701C100.424 56.1845 101.166 49.4848 100.675 42.5928C100.273 36.8026 99.0406 31.2179 96.0553 26.1353C94.1948 22.9892 91.9028 20.2669 88.5611 18.6368C81.4789 15.1451 74.2529 12.0088 66.5233 10.1962C65.6809 9.98258 64.8185 9.85693 63.95 9.82124C63.7345 9.83771 63.5261 9.90553 63.3423 10.019C63.1585 10.1325 63.0048 10.2883 62.8939 10.4733C62.5914 11.353 62.3424 12.2501 62.1484 13.1597C65.2743 13.8737 68.2987 14.4638 71.2545 15.2788C73.3406 15.8624 75.3057 16.8568 77.3689 17.5414C86.6974 20.6255 92.596 27.0449 95.2411 36.3234C97.1736 43.1013 96.9937 49.9738 95.4406 56.9083C93.2205 66.8421 88.6494 75.2208 80.2234 81.1479C73.4551 85.911 65.8694 89.1321 57.9894 91.5283C53.2941 92.953 48.5072 92.5488 43.9296 90.5503C41.6899 89.5722 39.4861 88.5029 37.2365 87.5411C36.8442 87.3716 36.0496 87.3553 35.8763 87.59C35.0528 88.6698 34.3407 89.8298 33.751 91.0523C33.5973 91.3784 34.1172 92.0141 34.3298 92.5096L34.8006 92.3466C34.9771 91.9424 35.1177 91.5577 35.2027 91.3425L35.1995 91.3458ZM74.1842 121.617C73.5564 120.404 73.1772 119.312 72.5036 118.438C70.6856 116.074 68.7696 113.779 66.8404 111.497C64.5974 108.843 61.7168 107.106 58.2477 107.073C55.1872 107.044 52.0941 107.503 49.063 108.018C39.6986 109.619 31.2628 113.287 24.0563 119.576C23.517 119.993 22.9513 120.375 22.3626 120.72L22.8139 121.666C39.8033 122.06 56.7992 121.734 74.1875 121.613L74.1842 121.617ZM78.376 64.084C87.4167 52.8819 86.4979 41.5593 78.376 32.6981C77.8267 33.7478 77.3329 34.7552 76.7836 35.73C76.2505 36.6011 75.9174 37.579 75.8083 38.5937C75.6992 39.6083 75.8168 40.6344 76.1526 41.5984C77.2872 45.1488 77.1531 48.6111 75.1913 52.0832C74.2104 53.7915 74.1417 56.1258 74.0992 58.1895C74.0306 61.0455 76.3913 62.4311 78.3792 64.0807L78.376 64.084ZM25.4558 68.9189C25.5244 68.1136 25.544 67.6409 25.6062 67.1714C25.9985 64.1687 27.6138 62.7082 30.6284 62.7897C31.9363 62.8223 33.205 63.1385 34.4998 63.2722C35.1359 63.3048 35.7732 63.3048 36.4093 63.2722C36.2752 62.6886 36.1052 62.4832 35.8927 62.3463C33.6039 60.8955 31.2366 59.5523 29.0525 57.9581C28.2252 57.3517 27.3522 56.191 27.313 55.2456C27.1364 51.0888 27.4993 46.9712 30.5075 43.6654C31.9886 42.0353 31.8938 40.2943 30.9456 38.5599C29.9974 36.8255 28.9053 35.2997 27.8623 33.6402C22.9937 41.0246 19.3839 59.3437 25.4558 68.9189ZM72.6115 71.2206C70.5123 70.311 68.7826 69.4177 66.9614 68.808C63.9239 67.7876 62.5179 69.1014 62.4329 72.3095C62.3806 74.3634 62.9462 76.4369 63.2667 78.7255C67.1674 76.9976 69.4791 73.9396 72.6115 71.2336V71.2206Z" fill="#CFD7DE"/>
<path d="M8.67236 58.9719C9.48325 55.1673 10.1634 51.33 11.1672 47.5613C11.5726 46.0453 12.5372 44.601 13.5344 43.3556C13.9693 42.8079 15.13 42.8405 15.9605 42.609C16.0848 43.3817 16.4412 44.2 16.2875 44.9172C15.287 49.9119 14.0281 54.8608 13.1878 59.8783C12.8608 61.8344 13.4102 63.947 13.4985 65.9912C13.4727 66.5994 13.3906 67.2041 13.2532 67.7973C12.6451 67.6734 11.7655 67.7582 11.4745 67.3865C10.6047 66.265 9.69576 65.049 9.30339 63.7221C8.87179 62.2484 8.97644 60.6118 8.87508 59.0502L8.67236 58.9719Z" fill="#CFD7DE"/>
<path d="M4.78134 46.3027C4.40533 48.4577 4.15357 50.3356 3.72851 52.1711C3.45385 53.3741 2.35193 53.5338 1.53451 52.5949C0.458775 51.3625 0.792288 46.3451 2.10998 45.4225C2.37294 45.2659 2.66547 45.1651 2.96928 45.1264C3.27308 45.0877 3.58163 45.1119 3.87563 45.1975C4.31704 45.354 4.56881 46.0321 4.78134 46.3027Z" fill="#CFD7DE"/>
</svg>
