<?xml version="1.0" standalone="no"?><!DOCTYPE svg PUBLIC "-//W3C//DTD SVG 1.1//EN" "http://www.w3.org/Graphics/SVG/1.1/DTD/svg11.dtd"><svg t="1596082298182" class="icon" viewBox="0 0 1024 1024" version="1.1" xmlns="http://www.w3.org/2000/svg" p-id="4038" xmlns:xlink="http://www.w3.org/1999/xlink" width="48" height="48"><defs><style type="text/css"></style></defs><path d="M734 477h-160v-362c0-44.184 35.816-80 80-80s80 35.816 80 80v362z" fill="#F9A7A7" p-id="4039"></path><path d="M856 757l-41.472-246.752v0.14c-12.84-78.276-80.496-136.312-161.772-136.72h-0.856c-82.34 0-151.256 59.488-163.032 139.436v-0.096l-36.972 219.408-4.016 22.896h0.156l-0.036 0.2h40.832l365.336 1.86-0.06-0.372H856z" fill="#F9CFCF" p-id="4040"></path><path d="M536.352 520.092c8.404-57.036 56.996-98.432 115.548-98.432h0.744c57.18 0.288 105.396 40.868 114.52 96.492l0.032 0.044 32.068 190.8h-1.86l0.016 0.084-292.664-1.492 31.444-186.62 0.152-0.876z" fill="#F9A7A7" p-id="4041"></path><path d="M854.164 765.372h-0.032l-365.336-1.86H448a8.012 8.012 0 0 1-7.608-5.524 7.808 7.808 0 0 1-0.392-4.068l4.016-22.896 36.956-219.356 0.064-0.324c6.98-46.244 33.084-88.068 71.692-114.828 8.312-5.76 13.272-15.456 13.272-25.936V115c0-24.096 9.552-46.588 26.9-63.328 17.336-16.732 40.1-25.496 64.304-24.612C703.96 28.72 742 69.032 742 116.916v256.632c0 10.152 4.756 19.696 12.732 25.528 36.172 26.464 60.144 65.24 67.568 109.256 0.048 0.192 0.084 0.388 0.12 0.584l41.472 246.752a7.992 7.992 0 0 1-7.428 9.312 7 7 0 0 1-2.3 0.392z m-396.796-17.86h31.468l357.76 1.82-39.836-237.02a8.028 8.028 0 0 1-0.128-0.632c-6.588-40.164-28.38-75.568-61.348-99.688-12.08-8.836-19.284-23.208-19.284-38.444V116.916c0-39.372-31.116-72.508-69.368-73.872-19.72-0.688-38.44 6.452-52.624 20.14-14.192 13.696-22.008 32.096-22.008 51.816v255.584c0 15.728-7.536 30.336-20.156 39.084-35.144 24.36-58.86 62.484-65.068 104.596a8.952 8.952 0 0 1-0.124 0.668l-36.868 218.808-2.416 13.772z" fill="#3762CC" p-id="4042"></path><path d="M949.816 747.772l2.184-6.772h-1.092c1.024-7.672 1.356-15.564 0.856-23.62-3.724-60.264-53.076-109.08-113.372-112.212a104.84 104.84 0 0 0-2.228-0.096c-29.656-1.004-57.248-14.048-77.852-35.4-21.812-22.608-52.416-36.668-86.316-36.668-3.204 0-6.38 0.124-9.52 0.376-27.228 2.148-54.624-5.496-76.024-22.464-20.456-16.22-46.32-25.912-74.46-25.912s-54.004 9.688-74.46 25.912c-21.4 16.968-48.796 24.612-76.024 22.464a120.912 120.912 0 0 0-9.52-0.376c-33.9 0-64.5 14.064-86.316 36.668-20.604 21.352-48.196 34.396-77.856 35.4-0.74 0.024-1.476 0.056-2.22 0.096-60.296 3.132-109.648 51.944-113.376 112.204a121.508 121.508 0 0 0 0.856 23.628H72l2.184 6.772a119.108 119.108 0 0 0 8.888 27.552L152 989h720l68.928-213.672a119.2 119.2 0 0 0 8.888-27.556z" fill="#EAA97D" p-id="4043"></path><path d="M837.048 997H186.952a55.84 55.84 0 0 1-53.296-38.808L75.608 778.24a127.388 127.388 0 0 1-9.188-28.468l-2.036-6.316a7.996 7.996 0 0 1 0.28-5.652 129.372 129.372 0 0 1-0.416-20.924c3.948-63.808 57.08-116.384 120.948-119.7 0.776-0.044 1.572-0.076 2.36-0.104 27.048-0.916 52.748-12.62 72.368-32.96 24.344-25.224 57.04-39.116 92.076-39.116 3.42 0 6.872 0.136 10.252 0.408 25.844 2.044 50.824-5.312 70.312-20.764 22.808-18.084 50.272-27.644 79.432-27.644s56.624 9.56 79.428 27.64c19.496 15.464 44.452 22.84 70.264 20.768a130.552 130.552 0 0 1 10.304-0.412c35.48 0 68.464 14.192 92.884 39.964 18.504 19.532 44.308 30.952 72.656 32.156l1.1 0.052c46.896 2.348 88.236 29.164 107.872 69.98 10.952 22.76 15.256 46.508 12.824 70.66 0.768 1.768 0.884 3.776 0.276 5.652l-2.036 6.316a126.924 126.924 0 0 1-9.188 28.468l-58.048 179.952a55.816 55.816 0 0 1-53.284 38.804z m-756.12-254.38l0.868 2.696c0.1 0.312 0.18 0.624 0.244 0.944a111.304 111.304 0 0 0 8.296 25.704c0.132 0.292 0.252 0.596 0.352 0.904l58.196 180.412a39.888 39.888 0 0 0 38.072 27.72h650.092a39.892 39.892 0 0 0 38.072-27.72l58.196-180.412c0.096-0.312 0.22-0.612 0.356-0.908a111.404 111.404 0 0 0 8.292-25.7c0.064-0.32 0.14-0.632 0.244-0.944l0.868-2.696a7.9 7.9 0 0 1-0.092-2.676c2.996-22.468-0.664-44.624-10.884-65.86-17.092-35.532-53.216-58.884-94.26-60.936l-0.996-0.048c-32.5-1.38-62.188-14.568-83.572-37.136-21.364-22.548-50.224-34.968-81.264-34.968-2.996 0-6.036 0.12-9.028 0.36-29.868 2.4-58.796-6.188-81.484-24.18-19.944-15.816-43.976-24.176-69.488-24.176s-49.544 8.36-69.492 24.176c-22.672 17.98-51.644 26.572-81.528 24.18a113.6 113.6 0 0 0-8.98-0.356c-30.652 0-59.26 12.156-80.56 34.224-22.524 23.344-52.116 36.78-83.34 37.84l-2.068 0.088c-55.884 2.904-102.36 48.896-105.816 104.712a114.536 114.536 0 0 0 0.804 22.08c0.116 0.9 0.08 1.804-0.1 2.676z" fill="#3762CC" p-id="4044"></path><path d="M656 113m-40 0a40 40 0 1 0 80 0 40 40 0 1 0-80 0Z" fill="#E0EBFC" p-id="4045"></path><path d="M837.048 989H186.952a48 48 0 0 1-45.684-33.264L72 741h880l-69.268 214.736a48 48 0 0 1-45.684 33.264z" fill="#A4C9FF" p-id="4046"></path><path d="M837.048 997H186.952a55.84 55.84 0 0 1-53.296-38.808l-69.268-214.736A8.008 8.008 0 0 1 72 733h880a8 8 0 0 1 7.612 10.456l-69.268 214.74a55.84 55.84 0 0 1-53.296 38.804z m-754.06-248l65.896 204.28a39.88 39.88 0 0 0 38.072 27.72h650.092a39.892 39.892 0 0 0 38.072-27.72l65.896-204.28H82.988z" fill="#3762CC" p-id="4047"></path><path d="M969.656 773H54.344A22.344 22.344 0 0 1 32 750.656v-59.316a22.344 22.344 0 0 1 22.344-22.344h915.316a22.344 22.344 0 0 1 22.344 22.344v59.316a22.352 22.352 0 0 1-22.348 22.344z" fill="#4671C6" p-id="4048"></path><path d="M969.656 781H54.344c-16.732 0-30.344-13.612-30.344-30.344v-59.312c0-16.732 13.612-30.344 30.344-30.344h915.312c16.732 0 30.344 13.612 30.344 30.344v59.312c0 16.732-13.612 30.344-30.344 30.344z m-915.312-104A14.36 14.36 0 0 0 40 691.344v59.312a14.36 14.36 0 0 0 14.344 14.344h915.312a14.36 14.36 0 0 0 14.344-14.344v-59.312a14.36 14.36 0 0 0-14.344-14.344H54.344z" fill="#3762CC" p-id="4049"></path><path d="M438.456 889.556h-0.272a22.952 22.952 0 0 1-22.952-22.952v-12.768a22.952 22.952 0 0 1 22.952-22.952h0.272a22.952 22.952 0 0 1 22.952 22.952v12.768a22.952 22.952 0 0 1-22.952 22.952zM585.544 889.556h0.272a22.952 22.952 0 0 0 22.952-22.952v-12.768a22.952 22.952 0 0 0-22.952-22.952h-0.272a22.952 22.952 0 0 0-22.952 22.952v12.768a22.952 22.952 0 0 0 22.952 22.952zM482.644 847.552h-0.272a22.952 22.952 0 0 1-22.952-22.952v-12.768a22.952 22.952 0 0 1 22.952-22.952h0.272a22.952 22.952 0 0 1 22.952 22.952v12.768a22.952 22.952 0 0 1-22.952 22.952zM540.112 847.552h0.272a22.952 22.952 0 0 0 22.952-22.952v-12.768a22.952 22.952 0 0 0-22.952-22.952h-0.272a22.952 22.952 0 0 0-22.952 22.952v12.768a22.952 22.952 0 0 0 22.952 22.952zM557.34 892.488c-2.044-0.504-3.464-2.216-3.464-4.172 0-21.376-18.748-38.704-41.876-38.704-23.128 0-41.876 17.328-41.876 38.704 0 1.956-1.42 3.668-3.464 4.172-17.656 4.36-30.66 19.236-30.66 36.924v0.948c0 21.112 18.52 38.232 41.364 38.232h69.272c22.844 0 41.364-17.116 41.364-38.232v-0.944c0-17.692-13.004-32.568-30.66-36.928z" fill="#4671C6" p-id="4050"></path></svg>