<?xml version="1.0" standalone="no"?><!DOCTYPE svg PUBLIC "-//W3C//DTD SVG 1.1//EN" "http://www.w3.org/Graphics/SVG/1.1/DTD/svg11.dtd"><svg t="1596082058779" class="icon" viewBox="0 0 1024 1024" version="1.1" xmlns="http://www.w3.org/2000/svg" p-id="3576" xmlns:xlink="http://www.w3.org/1999/xlink" width="48" height="48"><defs><style type="text/css"></style></defs><path d="M660 135.94h192v336h-192z" fill="#E0EBFC" p-id="3577"></path><path d="M852 479.94h-192a8 8 0 0 1-8-8v-336a8 8 0 0 1 8-8h192a8 8 0 0 1 8 8v336a8 8 0 0 1-8 8z m-184-16h176v-320h-176v320z" fill="#3762CC" p-id="3578"></path><path d="M860.744 171.94h-209.488A15.26 15.26 0 0 1 636 156.684V107.196a15.26 15.26 0 0 1 15.256-15.256h209.488A15.26 15.26 0 0 1 876 107.196v49.488a15.256 15.256 0 0 1-15.256 15.256z" fill="#F9A7A7" p-id="3579"></path><path d="M860.748 179.94h-209.492a23.28 23.28 0 0 1-23.252-23.256V107.196a23.28 23.28 0 0 1 23.252-23.256h209.492A23.28 23.28 0 0 1 884 107.196v49.488a23.28 23.28 0 0 1-23.252 23.256z m-209.496-80c-4 0-7.252 3.256-7.252 7.256v49.488c0 4 3.252 7.256 7.252 7.256h209.492c4 0 7.252-3.256 7.252-7.256V107.196c0-4-3.252-7.256-7.252-7.256h-209.492z" fill="#3762CC" p-id="3580"></path><path d="M512 159.94l-340 292v431.288c0 26.508 21.492 48 48 48h584c26.508 0 48-21.492 48-48V451.94l-340-292z" fill="#E0EBFC" p-id="3581"></path><path d="M369.068 932.06v-191.748c0-26.508 21.492-48 48-48h189.864c26.508 0 48 21.492 48 48v191.748H369.068z" fill="#A4C9FF" p-id="3582"></path><path d="M804 939.232H220c-30.88 0-56-25.12-56-56V451.94c0-2.332 1.02-4.548 2.788-6.068l340-292a7.992 7.992 0 0 1 10.42 0l340 292c1.768 1.52 2.788 3.736 2.788 6.068v431.288c0.004 30.88-25.116 56.004-55.996 56.004zM180 455.616v427.616c0 22.056 17.944 40 40 40h584c22.056 0 40-17.944 40-40V455.616l-332-285.128-332 285.128z" fill="#3762CC" p-id="3583"></path><path d="M924.008 569.116c-12.476 7.056-27.048 5.076-36.956-3.428l-359.42-308.68a24 24 0 0 0-31.272 0l-359.42 308.68a32.024 32.024 0 0 1-20.848 7.724 31.8 31.8 0 0 1-22.628-9.368l-37.56-37.568a32.092 32.092 0 0 1-9.352-23.84 32.096 32.096 0 0 1 11.124-23.06l433.464-372.268a32.016 32.016 0 0 1 41.704 0.004l433.464 372.268c6.736 5.788 10.788 14.196 11.124 23.068s-3.076 17.56-9.352 23.836l-37.536 37.536a30.708 30.708 0 0 1-6.536 5.096z" fill="#F9A7A7" p-id="3584"></path><path d="M386.9 518.532c-21.648 0-39.2-17.552-39.2-39.2v-22.4c0-21.648 17.552-39.2 39.2-39.2 21.648 0 39.2 17.552 39.2 39.2v22.4c0 21.648-17.552 39.2-39.2 39.2zM637.1 518.532c21.648 0 39.2-17.552 39.2-39.2v-22.4c0-21.648-17.552-39.2-39.2-39.2-21.648 0-39.2 17.552-39.2 39.2v22.4c0 21.648 17.552 39.2 39.2 39.2zM461.924 446.368c-21.648 0-39.2-17.552-39.2-39.2v-22.4c0-21.648 17.552-39.2 39.2-39.2 21.648 0 39.2 17.552 39.2 39.2v22.4a39.2 39.2 0 0 1-39.2 39.2zM559.96 446.368c21.648 0 39.2-17.552 39.2-39.2v-22.4c0-21.648-17.552-39.2-39.2-39.2-21.648 0-39.2 17.552-39.2 39.2v22.4a39.2 39.2 0 0 0 39.2 39.2zM589.016 523.572c-3.472-0.868-5.884-3.808-5.884-7.168 0-36.724-31.848-66.492-71.132-66.492-39.288 0-71.132 29.768-71.132 66.492 0 3.36-2.412 6.3-5.884 7.168-29.988 7.492-52.08 33.044-52.08 63.436v1.624c0 36.272 31.46 65.68 70.264 65.68h117.664c38.808 0 70.264-29.404 70.264-65.68v-1.624c0-30.392-22.092-55.944-52.08-63.436z" fill="#4671C6" p-id="3585"></path><path d="M907.808 581.452a39.712 39.712 0 0 1-25.964-9.696l-359.416-308.68a15.908 15.908 0 0 0-20.848 0L142.16 571.752a40.016 40.016 0 0 1-26.06 9.656 39.752 39.752 0 0 1-28.28-11.708l-37.564-37.572a40.12 40.12 0 0 1-11.692-29.8 40.12 40.12 0 0 1 13.912-28.828l433.464-372.268a40 40 0 0 1 52.128 0.004l433.464 372.268a40.152 40.152 0 0 1 13.912 28.832 40.136 40.136 0 0 1-11.692 29.796l-37.536 37.536c-2.684 2.684-5.388 4.78-8.264 6.408a40.868 40.868 0 0 1-20.144 5.376z m16.2-12.336h0.04-0.04zM512 243.16c7.408 0 14.808 2.592 20.852 7.784l359.416 308.676c7.784 6.68 18.696 7.68 27.804 2.532a22.824 22.824 0 0 0 4.828-3.796l37.536-37.536a24.084 24.084 0 0 0 7.012-17.88 24.096 24.096 0 0 0-8.344-17.304L527.64 113.372c-4.352-3.736-9.908-5.796-15.64-5.796s-11.288 2.06-15.64 5.796L62.896 485.64a24.052 24.052 0 0 0-8.34 17.296 24.052 24.052 0 0 0 7.012 17.88l37.56 37.568a23.872 23.872 0 0 0 16.972 7.024 24.008 24.008 0 0 0 15.636-5.792l359.416-308.676A31.916 31.916 0 0 1 512 243.16zM654.932 940.06H369.068a8 8 0 0 1-8-8v-191.748c0-30.88 25.12-56 56-56h189.868c30.88 0 56 25.12 56 56v191.748a8.008 8.008 0 0 1-8.004 8z m-277.864-16h269.868v-183.748c0-22.056-17.944-40-40-40h-189.868c-22.056 0-40 17.944-40 40v183.748z" fill="#3762CC" p-id="3586"></path></svg>