<?xml version="1.0" standalone="no"?><!DOCTYPE svg PUBLIC "-//W3C//DTD SVG 1.1//EN" "http://www.w3.org/Graphics/SVG/1.1/DTD/svg11.dtd"><svg t="1596082178203" class="icon" viewBox="0 0 1024 1024" version="1.1" xmlns="http://www.w3.org/2000/svg" p-id="3726" xmlns:xlink="http://www.w3.org/1999/xlink" width="48" height="48"><defs><style type="text/css"></style></defs><path d="M68.796 145.052L74 224h560l5.064-78.976A16 16 0 0 0 623.096 128H84.76a16 16 0 0 0-15.964 17.052z" fill="#A4C9FF" p-id="3727"></path><path d="M674 832v-1.144L634 224h-560L35.024 832z" fill="#F9A7A7" p-id="3728"></path><path d="M341.06 496m-180 0a180 180 0 1 0 360 0 180 180 0 1 0-360 0Z" fill="#E0EBFC" p-id="3729"></path><path d="M658 896h-608a16 16 0 0 1-16-16v-48h640v48a16 16 0 0 1-16 16z" fill="#F9A7A7" p-id="3730"></path><path d="M114 204a12 12 0 0 1-12-12v-32a12 12 0 1 1 24 0v32a12 12 0 0 1-12 12zM194 204a12 12 0 0 1-12-12v-32a12 12 0 1 1 24 0v32a12 12 0 0 1-12 12zM274 204a12 12 0 0 1-12-12v-32a12 12 0 1 1 24 0v32a12 12 0 0 1-12 12zM354 204a12 12 0 0 1-12-12v-32a12 12 0 1 1 24 0v32a12 12 0 0 1-12 12zM434 204a12 12 0 0 1-12-12v-32a12 12 0 1 1 24 0v32a12 12 0 0 1-12 12zM514 204a12 12 0 0 1-12-12v-32a12 12 0 1 1 24 0v32a12 12 0 0 1-12 12zM594 204a12 12 0 0 1-12-12v-32a12 12 0 1 1 24 0v32a12 12 0 0 1-12 12z" fill="#E0EBFC" p-id="3731"></path><path d="M658 904h-608c-13.236 0-24-10.764-24-24v-48c0-1.604 0.472-3.1 1.288-4.356l38.692-603.636-5.168-78.428A24.08 24.08 0 0 1 67.24 127.6a24.076 24.076 0 0 1 17.52-7.6h538.332c6.604 0 12.988 2.764 17.504 7.584s6.868 11.36 6.444 17.952l-5.028 78.456 39.964 606.34c0.012 0.172 0.016 0.348 0.016 0.524V880a24.012 24.012 0 0 1-23.992 24z m-616-68.08V880c0 4.412 3.588 8 8 8h608c4.412 0 8-3.588 8-8v-48.88l-39.984-606.596a7.464 7.464 0 0 1 0-1.036l5.064-78.976a7.912 7.912 0 0 0-2.148-5.984 7.928 7.928 0 0 0-5.836-2.528H84.76c-2.236 0-4.312 0.9-5.84 2.532s-2.288 3.76-2.144 5.992l5.204 78.948c0.024 0.344 0.024 0.692 0 1.036l-38.976 608a7.92 7.92 0 0 1-1.004 3.412z" fill="#3762CC" p-id="3732"></path><path d="M244.148 499.704h-1.092a29.992 29.992 0 0 1-29.992-29.992v-15.76a29.992 29.992 0 0 1 29.992-29.992h1.092a29.992 29.992 0 0 1 29.992 29.992v15.76a29.992 29.992 0 0 1-29.992 29.992zM437.976 499.704h1.092a29.992 29.992 0 0 0 29.992-29.992v-15.76a29.992 29.992 0 0 0-29.992-29.992h-1.092a29.992 29.992 0 0 0-29.992 29.992v15.76a29.992 29.992 0 0 0 29.992 29.992zM302.596 445.48h-1.092a29.992 29.992 0 0 1-29.992-29.992v-15.76a29.992 29.992 0 0 1 29.992-29.992h1.092a29.992 29.992 0 0 1 29.992 29.992v15.76a29.992 29.992 0 0 1-29.992 29.992zM377.876 445.48h1.092a29.992 29.992 0 0 0 29.992-29.992v-15.76a29.992 29.992 0 0 0-29.992-29.992h-1.092a29.992 29.992 0 0 0-29.992 29.992v15.76a29.992 29.992 0 0 0 29.992 29.992zM401.06 503.492c-2.704-0.652-4.584-2.864-4.584-5.388 0-27.596-24.812-49.964-55.416-49.964-30.608 0-55.416 22.368-55.416 49.964 0 2.524-1.88 4.736-4.584 5.388-23.364 5.628-40.572 24.832-40.572 47.668v1.22c0 27.256 24.508 49.352 54.74 49.352h91.664c30.232 0 54.74-22.096 54.74-49.352v-1.22c0-22.84-17.208-42.04-40.572-47.668z" fill="#4671C6" p-id="3733"></path><path d="M865.9 688h-1.536c-10.088 0-17.208-9.152-15.676-19.124 1.512-9.84-1.48-21.176-11.188-31.916-2.936-3.248-7.212-4.96-11.592-4.96h-1.544c-10.088 0-17.208-9.152-15.676-19.124 1.512-9.84-1.48-21.176-11.192-31.916-2.936-3.248-7.212-4.96-11.592-4.96h-233.696c-4.376 0-8.656 1.716-11.592 4.96-9.708 10.736-12.704 22.072-11.192 31.916 1.532 9.972-5.584 19.124-15.676 19.124h-1.544c-4.376 0-8.656 1.716-11.592 4.96-9.708 10.736-12.704 22.072-11.192 31.916 1.532 9.972-5.584 19.124-15.676 19.124h-1.536c-4.388 0-8.672 1.732-11.62 4.98-24.74 27.272-5.848 59.02 20.46 59.02h376c26.308 0 45.2-31.748 20.46-59.02-2.936-3.248-7.22-4.98-11.608-4.98z" fill="#F9CFCF" p-id="3734"></path><path d="M521.06 752h-40a32 32 0 0 1 0-64h40a32 32 0 0 1 0 64z" fill="#6BDDDD" p-id="3735"></path><path d="M577.06 696h-40a32 32 0 0 1 0-64h40a32 32 0 0 1 0 64z" fill="#F9A7A7" p-id="3736"></path><path d="M628.06 636h-46a29 29 0 0 1-29-29v-6a29 29 0 0 1 29-29h46a29 29 0 0 1 29 29v6a29 29 0 0 1-29 29z" fill="#6BDDDD" p-id="3737"></path><path d="M649.06 600h-40a32 32 0 0 1 0-64h40a32 32 0 0 1 0 64z" fill="#F9A7A7" p-id="3738"></path><path d="M753.06 600h-40a32 32 0 0 1 0-64h40a32 32 0 0 1 0 64z" fill="#6BDDDD" p-id="3739"></path><path d="M745.06 640h-40a32 32 0 0 1 0-64h40a32 32 0 0 1 0 64z" fill="#F9A7A7" p-id="3740"></path><path d="M785.06 696h-40a32 32 0 0 1 0-64h40a32 32 0 0 1 0 64z" fill="#F9A7A7" p-id="3741"></path><path d="M857.06 752h-40a32 32 0 0 1 0-64h40a32 32 0 0 1 0 64z" fill="#6BDDDD" p-id="3742"></path><path d="M633.06 752h-40a32 32 0 0 1 0-64h40a32 32 0 0 1 0 64z" fill="#F9A7A7" p-id="3743"></path><path d="M681.06 688h-40a32 32 0 0 1 0-64h40a32 32 0 0 1 0 64zM737.06 752h-40a32 32 0 0 1 0-64h40a32 32 0 0 1 0 64z" fill="#6BDDDD" p-id="3744"></path><path d="M857.06 760h-376c-1.236 0-2.456-0.072-3.668-0.18l-0.884-0.096a41.732 41.732 0 0 1-2.86-0.432l-1.04-0.2a40.42 40.42 0 0 1-3.4-0.876 19.812 19.812 0 0 1-0.52-0.176 35.124 35.124 0 0 1-2.792-1.028l-0.872-0.376a41.3 41.3 0 0 1-2.468-1.184l-0.888-0.468a39.38 39.38 0 0 1-2.924-1.78 18.108 18.108 0 0 1-0.448-0.32 37.92 37.92 0 0 1-2.32-1.736l-0.824-0.688c-0.656-0.56-1.296-1.144-1.92-1.748l-0.652-0.628a40.68 40.68 0 0 1-2.312-2.544 25.24 25.24 0 0 1-0.404-0.512 39.224 39.224 0 0 1-1.688-2.264l-0.596-0.892c-0.476-0.732-0.928-1.48-1.364-2.244l-0.464-0.828a40.872 40.872 0 0 1-1.488-3.088 36.44 36.44 0 0 1-0.236-0.592 39.528 39.528 0 0 1-1.004-2.744l-0.324-1.044a40.24 40.24 0 0 1-0.684-2.656l-0.192-0.852a38.46 38.46 0 0 1-0.752-7.248 5.088 5.088 0 0 1-0.024-0.576c0-0.196 0.02-0.632 0.032-0.828 0.004-0.708 0.056-1.672 0.136-2.64l0.068-0.844c1.02-9.832 5.652-19.564 13.38-28.08 4.384-4.832 10.776-7.608 17.544-7.608h1.536c2.92 0 4.768-1.44 5.808-2.652 1.66-1.932 2.372-4.576 1.96-7.252-2.028-13.196 2.644-26.868 13.164-38.5 4.368-4.828 10.756-7.596 17.524-7.596h1.544c2.92 0 4.768-1.44 5.808-2.652 1.66-1.932 2.372-4.576 1.96-7.252a40.092 40.092 0 0 1-0.416-6.148 7.9 7.9 0 0 1-0.048-0.948v-6c0-20.404 16.596-37 37-37h11.2c2.012-20.184 19.096-36 39.8-36h40a39.96 39.96 0 0 1 32 16.024 39.96 39.96 0 0 1 32-16.024h40c22.056 0 40 17.944 40 40 0 0.352-0.004 0.704-0.016 1.06 4 1.22 7.604 3.46 10.388 6.536 10.52 11.632 15.192 25.304 13.164 38.5-0.412 2.676 0.304 5.324 1.96 7.252 1.036 1.212 2.888 2.652 5.808 2.652h1.544c6.772 0 13.16 2.768 17.524 7.596 10.516 11.632 15.192 25.304 13.164 38.5-0.412 2.676 0.304 5.324 1.96 7.252 1.036 1.212 2.888 2.652 5.808 2.652h1.536c6.764 0 13.16 2.772 17.544 7.604 7.728 8.52 12.356 18.248 13.384 28.14l0.056 0.68c0.092 1.084 0.14 2.052 0.156 3.012 0.008 0.012 0.024 0.284 0.024 0.564 0 0.2-0.02 0.636-0.032 0.832a35.032 35.032 0 0 1-0.136 2.644l-0.072 0.836a38.78 38.78 0 0 1-1.42 7.036l-0.32 1.032c-0.292 0.904-0.62 1.8-0.98 2.684l-0.232 0.584a39.532 39.532 0 0 1-1.54 3.196l-0.348 0.62c-0.512 0.908-0.972 1.66-1.452 2.4l-0.608 0.904c-0.54 0.78-1.124 1.56-1.732 2.312l-0.352 0.452c-0.724 0.872-1.492 1.712-2.292 2.524l-0.54 0.524a43 43 0 0 1-2.048 1.868l-0.788 0.66a38.088 38.088 0 0 1-2.46 1.836l-0.344 0.244a38.8 38.8 0 0 1-2.956 1.8l-0.676 0.356c-0.944 0.496-1.728 0.868-2.524 1.224l-0.98 0.424a38.2 38.2 0 0 1-6.756 2.096l-0.812 0.16c-1.068 0.2-1.956 0.336-2.856 0.444l-1.084 0.12a37.828 37.828 0 0 1-3.652 0.188z m11.076-18.724l4.336 6.76-3.836-7.02c0.636-0.352 1.224-0.7 1.792-1.084 0.724-0.508 1.208-0.876 1.684-1.256l0.468-0.396c0.404-0.34 0.788-0.692 1.164-1.056l6.084 5.248-5.668-5.648a25.04 25.04 0 0 0 1.38-1.516l0.196-0.256c0.38-0.468 0.724-0.932 1.052-1.408l0.348-0.52c0.292-0.448 0.568-0.904 0.832-1.364l7.256 3.424-7-3.876c0.344-0.64 0.644-1.264 0.92-1.904l0.128-0.336c0.228-0.556 0.42-1.088 0.596-1.632l0.188-0.616a22.96 22.96 0 0 0 0.416-1.62l0.088-0.392c0.164-0.804 0.272-1.508 0.348-2.228l0.032-0.472c0.048-0.58 0.084-1.168 0.088-1.756l0.012-0.34-0.012-0.376a23.564 23.564 0 0 0-0.088-1.752 242.28 242.28 0 0 1-0.032-0.452c-0.676-6.516-3.896-13.1-9.32-19.08-1.36-1.5-3.436-2.356-5.696-2.356h-1.536a23.628 23.628 0 0 1-17.952-8.232c-4.7-5.48-6.752-12.808-5.628-20.108 1.3-8.468-1.884-17.228-9.216-25.332-1.336-1.48-3.4-2.328-5.66-2.328h-1.544a23.628 23.628 0 0 1-17.952-8.232c-4.7-5.48-6.752-12.808-5.628-20.108 1.3-8.468-1.884-17.228-9.216-25.332-1.336-1.476-3.4-2.328-5.66-2.328h-1.896a8 8 0 0 1-7.744-10 24.112 24.112 0 0 0 0.796-6c0-13.236-10.764-24-24-24h-40c-13.236 0-24 10.764-24 24a8 8 0 0 1-16 0c0-13.236-10.764-24-24-24h-40c-13.236 0-24 10.764-24 24 0 1.02 0.092 2.02 0.216 3.008a8 8 0 0 1-7.94 8.992h-19.276a21.024 21.024 0 0 0-21 21v6l0.044 0.664c0.004 1.772 0.08 2.984 0.236 3.996 1.124 7.3-0.928 14.628-5.628 20.108a23.624 23.624 0 0 1-17.952 8.232h-1.544c-2.256 0-4.32 0.848-5.66 2.328-7.332 8.104-10.516 16.864-9.216 25.332 1.124 7.3-0.928 14.628-5.628 20.108a23.624 23.624 0 0 1-17.952 8.232h-1.536c-2.26 0-4.336 0.86-5.696 2.356-5.5 6.064-8.636 12.468-9.32 19.04l-0.04 0.544a23.372 23.372 0 0 0-0.084 1.72l-0.012 0.324 0.012 0.372c0.008 0.584 0.036 1.172 0.088 1.76l0.032 0.448c0.076 0.744 0.184 1.452 0.324 2.148l0.128 0.548c0.108 0.488 0.244 1.02 0.4 1.544l0.192 0.628a24.752 24.752 0 0 0 1.64 3.864l0.268 0.472c0.252 0.444 0.528 0.904 0.824 1.352l0.336 0.504c0.34 0.496 0.684 0.956 1.048 1.408l0.304 0.392c0.348 0.416 0.816 0.924 1.3 1.416l0.372 0.352c0.416 0.404 0.8 0.752 1.192 1.084l0.5 0.42c0.444 0.356 0.928 0.724 1.432 1.068l0.368 0.264a24.58 24.58 0 0 0 3.556 1.924l0.568 0.248c0.592 0.24 1.2 0.472 1.828 0.668 0.124 0.04 0.34 0.112 0.46 0.16 0.36 0.104 1.052 0.272 1.748 0.42l0.612 0.116a23.472 23.472 0 0 0 2.224 0.316c0.736 0.068 1.476 0.116 2.228 0.116h376c0.752 0 1.492-0.048 2.228-0.116l0.636-0.076a24.92 24.92 0 0 0 2.2-0.36 25.56 25.56 0 0 0 2.064-0.528c0.768-0.252 1.38-0.484 1.98-0.728l0.432-0.188c0.612-0.252 1.084-0.48 1.544-0.72z" fill="#3762CC" p-id="3745"></path><path d="M954 856h-576l46.612-143.42a23.996 23.996 0 0 1 22.824-16.58h437.128a24 24 0 0 1 22.824 16.58L954 856z" fill="#4671C6" p-id="3746"></path><path d="M954 864h-576a8 8 0 0 1-7.608-10.472l46.612-143.416a31.912 31.912 0 0 1 30.432-22.108h437.128a31.912 31.912 0 0 1 30.432 22.108l46.608 143.416a7.984 7.984 0 0 1-1.136 7.172 7.988 7.988 0 0 1-6.468 3.3z m-564.988-16h553.976l-43.208-132.944a15.96 15.96 0 0 0-15.216-11.056H447.436a15.956 15.956 0 0 0-15.216 11.056L389.012 848z" fill="#3762CC" p-id="3747"></path><path d="M988.784 873.976l-18.204-44c-2.496-6.032-8.468-9.976-15.096-9.976H376.516c-6.632 0-12.6 3.944-15.096 9.976l-18.204 44c-4.352 10.52 3.532 22.024 15.096 22.024h615.376c11.564 0 19.452-11.5 15.096-22.024z" fill="#A4C9FF" p-id="3748"></path><path d="M973.688 904H358.312a24.32 24.32 0 0 1-20.276-10.776 23.736 23.736 0 0 1-2.212-22.304l18.204-44c3.752-9.064 12.58-14.92 22.492-14.92h578.964c9.912 0 18.74 5.856 22.492 14.92l18.204 44a23.736 23.736 0 0 1-2.212 22.304 24.332 24.332 0 0 1-20.28 10.776zM376.516 828c-3.416 0-6.44 1.976-7.704 5.036l-18.204 44a7.644 7.644 0 0 0 0.732 7.292 8.24 8.24 0 0 0 6.976 3.668h615.376a8.24 8.24 0 0 0 6.976-3.668c1.472-2.2 1.74-4.86 0.732-7.292l-18.204-44c-1.264-3.06-4.292-5.036-7.704-5.036H376.516z" fill="#3762CC" p-id="3749"></path></svg>