<?xml version="1.0" standalone="no"?><!DOCTYPE svg PUBLIC "-//W3C//DTD SVG 1.1//EN" "http://www.w3.org/Graphics/SVG/1.1/DTD/svg11.dtd"><svg t="1596082426337" class="icon" viewBox="0 0 1024 1024" version="1.1" xmlns="http://www.w3.org/2000/svg" p-id="4190" xmlns:xlink="http://www.w3.org/1999/xlink" width="48" height="48"><defs><style type="text/css"></style></defs><path d="M956 564v-51.836c0-25.496-20.668-46.164-46.164-46.164H114.164C88.668 466 68 486.668 68 512.164V564h888z" fill="#A4C9FF" p-id="4191"></path><path d="M360 254V172c0-4.412 3.588-8 8-8h304c4.412 0 8 3.588 8 8v82h40V172c0-26.508-21.492-48-48-48H368c-26.508 0-48 21.492-48 48v82h40z" fill="#F9CFCF" p-id="4192"></path><path d="M720 262h-40a8 8 0 0 1-8-8V172H368v82a8 8 0 0 1-8 8H320a8 8 0 0 1-8-8V172c0-30.88 25.12-56 56-56h304c30.88 0 56 25.12 56 56v82a8 8 0 0 1-8 8z m-32-16h24V172c0-22.056-17.944-40-40-40H368c-22.056 0-40 17.944-40 40v74h24V172c0-8.824 7.176-16 16-16h304c8.824 0 16 7.176 16 16v74z" fill="#3762CC" p-id="4193"></path><path d="M128.512 660l65.584 231.104a48 48 0 0 0 46.176 34.896h555.456a48 48 0 0 0 46.176-34.896L907.488 660H128.512z" fill="#A4C9FF" p-id="4194"></path><path d="M908.596 468l-77.064-175.708A63.996 63.996 0 0 0 772.92 254H267.08a64.004 64.004 0 0 0-58.612 38.292L131.404 468h777.192z" fill="#4671C6" p-id="4195"></path><path d="M68 562v51.836C68 639.332 88.668 660 114.164 660h795.668c25.496 0 46.164-20.668 46.164-46.164V562H68z" fill="#E0EBFC" p-id="4196"></path><path d="M597.02 186h-154.044a22.98 22.98 0 0 1-22.98-22.98v-42.04a22.98 22.98 0 0 1 22.98-22.98h154.044A22.98 22.98 0 0 1 620 120.98v42.044a22.98 22.98 0 0 1-22.98 22.976z" fill="#F9A7A7" p-id="4197"></path><path d="M597.024 194h-154.044c-17.084 0-30.98-13.896-30.98-30.98v-42.04c0-17.084 13.896-30.98 30.98-30.98h154.044c17.084 0 30.976 13.896 30.976 30.98v42.044c0 17.08-13.896 30.976-30.976 30.976z m-154.044-88A15 15 0 0 0 428 120.98v42.044a15 15 0 0 0 14.98 14.98h154.044A14.996 14.996 0 0 0 612 163.024V120.98a14.996 14.996 0 0 0-14.976-14.98h-154.044zM795.728 934H240.272c-24.916 0-47.072-16.744-53.872-40.712l-65.584-231.104a8 8 0 0 1-0.304-2.304l2.892-192c0.016-1.064 0.248-2.116 0.672-3.092L201.14 289.08A72.016 72.016 0 0 1 267.076 246H772.92a72.012 72.012 0 0 1 65.936 43.08l77.068 175.708c0.448 1.028 0.68 2.136 0.672 3.26l-1.108 192c-0.004 0.724-0.104 1.44-0.304 2.136L849.6 893.288c-6.804 23.972-28.956 40.712-53.872 40.712zM136.532 658.944l65.26 229.976c4.86 17.12 20.684 29.08 38.48 29.08h555.452c17.796 0 33.62-11.956 38.48-29.08l65.288-230.06 1.092-189.208-76.388-174.148a56 56 0 0 0-51.28-33.504H267.08a56.008 56.008 0 0 0-51.284 33.504l-76.416 174.228-2.848 189.212z" fill="#3762CC" p-id="4198"></path><path d="M795.728 934H240.272c-24.916 0-47.072-16.744-53.872-40.712l-65.584-231.104a8 8 0 0 1-0.304-2.304l2.892-192c0.016-1.064 0.248-2.116 0.672-3.092L201.14 289.08A72.016 72.016 0 0 1 267.076 246H772.92a72.012 72.012 0 0 1 65.936 43.08l77.068 175.708c0.448 1.028 0.68 2.136 0.672 3.26l-1.108 192c-0.004 0.724-0.104 1.44-0.304 2.136L849.6 893.288c-6.804 23.972-28.956 40.712-53.872 40.712zM136.532 658.944l65.26 229.976c4.86 17.12 20.684 29.08 38.48 29.08h555.452c17.796 0 33.62-11.956 38.48-29.08l65.288-230.06 1.092-189.208-76.388-174.148a56 56 0 0 0-51.28-33.504H267.08a56.008 56.008 0 0 0-51.284 33.504l-76.416 174.228-2.848 189.212z" fill="#3762CC" p-id="4199"></path><path d="M956 572H68a8 8 0 0 1-8-8v-51.836c0-29.864 24.3-54.164 54.164-54.164h795.672c29.868 0 54.164 24.3 54.164 54.164V564a8 8 0 0 1-8 8z m-880-16h872v-43.836c0-21.044-17.12-38.164-38.164-38.164H114.164c-21.044 0-38.164 17.12-38.164 38.164V556z" fill="#3762CC" p-id="4200"></path><path d="M909.836 668H114.168C84.3 668 60 643.7 60 613.836V562a8 8 0 0 1 8-8h888a8 8 0 0 1 8 8v51.836c0 29.864-24.296 54.164-54.164 54.164zM76 570v43.836c0 21.044 17.12 38.164 38.168 38.164h795.668c21.044 0 38.164-17.12 38.164-38.164V570H76z" fill="#3762CC" p-id="4201"></path><path d="M248.384 701.444l-9.004-31.724a165.784 165.784 0 0 1-6.28-47.768l1.472-97.936a165.832 165.832 0 0 1 13.944-64.112l1.176-2.684A165.84 165.84 0 0 1 401.56 358h236.884a165.828 165.828 0 0 1 151.86 99.216 165.816 165.816 0 0 1 13.964 67.572l-0.568 97.86a165.872 165.872 0 0 1-6.296 44.312l-9.788 34.484c-20.244 71.332-85.38 120.556-159.528 120.556h-220.18c-74.148 0-139.284-49.224-159.524-120.556z" fill="#F9CFCF" p-id="4202"></path><path d="M407.912 774c-52.428 0-99.04-35.224-113.352-85.66l-9.004-31.728a117.64 117.64 0 0 1-4.46-33.932l1.472-97.944c0.24-15.776 3.572-31.1 9.912-45.556l1.172-2.672a117.848 117.848 0 0 1 107.912-70.508h236.888a117.852 117.852 0 0 1 107.904 70.5 117.032 117.032 0 0 1 9.92 48.016l-0.568 97.856a118.08 118.08 0 0 1-4.476 31.488l-9.784 34.476c-14.312 50.436-60.924 85.664-113.352 85.664h-220.184z" fill="#F9A7A7" p-id="4203"></path><path d="M621.416 782h-220.18c-55.988 0-105.764-37.616-121.048-91.476l-9.004-31.728a125.58 125.58 0 0 1-4.764-36.24l1.472-97.944a125.26 125.26 0 0 1 10.584-48.648l1.172-2.672A125.856 125.856 0 0 1 394.884 398h236.888a125.856 125.856 0 0 1 115.232 75.284 124.992 124.992 0 0 1 10.592 51.276l-0.568 97.856a126 126 0 0 1-4.78 33.624l-9.784 34.476c-15.284 53.868-65.06 91.484-121.048 91.484z m-226.532-368a109.86 109.86 0 0 0-100.584 65.724l-1.172 2.672a109.24 109.24 0 0 0-9.236 42.464l-1.476 97.94a109.676 109.676 0 0 0 4.156 31.628l9.004 31.728c13.34 47.008 56.788 79.844 105.656 79.844h220.18c48.868 0 92.316-32.832 105.656-79.844l9.784-34.476a109.928 109.928 0 0 0 4.172-29.352l0.568-97.856a109.1 109.1 0 0 0-9.252-44.756 109.84 109.84 0 0 0-100.576-65.712h-236.88z" fill="#3762CC" p-id="4204"></path><path d="M621.416 830h-220.18c-77.344 0-146.108-51.968-167.224-126.372l-9.004-31.724a173.7 173.7 0 0 1-6.584-50.072l1.472-97.936a172.936 172.936 0 0 1 14.62-67.204l1.176-2.684A173.86 173.86 0 0 1 394.884 350h236.888a173.86 173.86 0 0 1 159.188 104.004 172.8 172.8 0 0 1 14.636 70.832l-0.568 97.864a174.02 174.02 0 0 1-6.6 46.448l-9.788 34.488c-21.116 74.4-89.884 126.364-167.224 126.364z m-226.532-464a157.848 157.848 0 0 0-144.536 94.432l-1.176 2.684a157 157 0 0 0-13.272 61.016l-1.472 97.936a157.656 157.656 0 0 0 5.976 45.46l9.004 31.724c19.172 67.556 81.608 114.74 151.832 114.74h220.18c70.228 0 132.66-47.18 151.832-114.74l9.788-34.488a157.924 157.924 0 0 0 5.992-42.172l0.568-97.86a156.84 156.84 0 0 0-13.292-64.312 157.844 157.844 0 0 0-144.532-94.428H394.884z" fill="#3762CC" p-id="4205"></path><path d="M749.324 571.084V564h-109a7 7 0 0 1-7-7v-150.944l-0.056-0.056h-47.944v151a7 7 0 0 1-7 7h-146a7 7 0 0 1-7-7V406h-30.44c-5.936 0-11.804 0.456-17.56 1.324v149.676a7 7 0 0 1-7 7H275.3l-0.72 48h95.744c3.864 0 7 3.136 7 7v152.424l0.576 0.576h47.424v-153c0-3.864 3.136-7 7-7h146c3.864 0 7 3.136 7 7V772h48v-153c0-3.864 3.136-7 7-7h108.764l0.236-40.916z" fill="#4671C6" p-id="4206"></path><path d="M633.324 780h-48a8 8 0 0 1-8-8v-152h-144v152a8 8 0 0 1-8 8H377.9a8 8 0 0 1-5.656-2.344l-0.576-0.576a8 8 0 0 1-2.344-5.656V620H274.58a7.996 7.996 0 0 1-8-8.124l0.724-48a8 8 0 0 1 8-7.88h94.024V407.32a8 8 0 0 1 6.808-7.912 126.428 126.428 0 0 1 18.752-1.412h30.44a8 8 0 0 1 8 8V556h144v-150a8 8 0 0 1 8-8h47.94c2.12 0 4.156 0.844 5.656 2.344s2.404 3.592 2.404 5.716V556h108a8 8 0 0 1 8 8v7.132l-0.24 40.916a8 8 0 0 1-8 7.952h-107.76v152a8.008 8.008 0 0 1-8.004 8z m-40-16h32v-145a15.02 15.02 0 0 1 15-15h100.808l0.188-32h-100.996a15.02 15.02 0 0 1-15-15V414h-32v143a15.02 15.02 0 0 1-15 15h-146a15.016 15.016 0 0 1-15-15V414h-22.44c-3.168 0-6.364 0.14-9.56 0.42v142.58a15.016 15.016 0 0 1-15 15H283.18l-0.484 32H370.32a15.016 15.016 0 0 1 15 15V764h32v-145a15.016 15.016 0 0 1 15-15h146a15.02 15.02 0 0 1 15 15V764z" fill="#3762CC" p-id="4207"></path></svg>