<?xml version="1.0" standalone="no"?><!DOCTYPE svg PUBLIC "-//W3C//DTD SVG 1.1//EN" "http://www.w3.org/Graphics/SVG/1.1/DTD/svg11.dtd"><svg t="1596082254944" class="icon" viewBox="0 0 1024 1024" version="1.1" xmlns="http://www.w3.org/2000/svg" p-id="3889" xmlns:xlink="http://www.w3.org/1999/xlink" width="48" height="48"><defs><style type="text/css"></style></defs><path d="M123.216 531.716h-1.632c-48.932 0-88.596-39.668-88.596-88.596V378.896c0-48.932 39.668-88.596 88.596-88.596h1.632c48.932 0 88.596 39.668 88.596 88.596v64.224c0.004 48.928-39.664 88.596-88.596 88.596zM900.784 531.716h1.632c48.932 0 88.596-39.668 88.596-88.596V378.896c0-48.932-39.668-88.596-88.596-88.596h-1.632c-48.932 0-88.596 39.668-88.596 88.596v64.224c-0.004 48.928 39.664 88.596 88.596 88.596zM356.868 306.984h-1.632c-48.932 0-88.596-39.668-88.596-88.596V154.164c0-48.932 39.668-88.596 88.596-88.596h1.632c48.932 0 88.596 39.668 88.596 88.596v64.224c0 48.932-39.664 88.596-88.596 88.596zM660.544 306.984h1.632c48.932 0 88.596-39.668 88.596-88.596V154.164c0-48.932-39.668-88.596-88.596-88.596h-1.632c-48.932 0-88.596 39.668-88.596 88.596v64.224c-0.004 48.932 39.664 88.596 88.596 88.596z" fill="#4671C6" p-id="3890"></path><path d="M123.216 539.716h-1.632c-53.264 0-96.596-43.332-96.596-96.596V378.896c0-53.264 43.332-96.596 96.596-96.596h1.632c53.264 0 96.596 43.332 96.596 96.596v64.224c0.004 53.26-43.332 96.596-96.596 96.596z m-1.632-241.42c-44.44 0-80.596 36.156-80.596 80.596v64.224c0 44.44 36.156 80.596 80.596 80.596h1.632c44.44 0 80.596-36.156 80.596-80.596V378.896c0-44.44-36.156-80.596-80.596-80.596h-1.632zM902.416 539.716h-1.632c-53.264 0-96.596-43.332-96.596-96.596V378.896c0-53.264 43.332-96.596 96.596-96.596h1.632c53.264 0 96.596 43.332 96.596 96.596v64.224c0 53.26-43.332 96.596-96.596 96.596z m-1.632-241.42c-44.44 0-80.596 36.156-80.596 80.596v64.224c0 44.44 36.156 80.596 80.596 80.596h1.632c44.44 0 80.596-36.156 80.596-80.596V378.896c0-44.44-36.156-80.596-80.596-80.596h-1.632zM356.868 314.984h-1.632c-53.264 0-96.596-43.332-96.596-96.596V154.168c0-53.264 43.332-96.596 96.596-96.596h1.632c53.264 0 96.596 43.332 96.596 96.596v64.224c0 53.26-43.332 96.592-96.596 96.592z m-1.632-241.416c-44.44 0-80.596 36.156-80.596 80.596v64.224c0 44.44 36.156 80.596 80.596 80.596h1.632c44.44 0 80.596-36.156 80.596-80.596V154.168c0-44.44-36.156-80.596-80.596-80.596h-1.632zM662.176 314.984h-1.632c-53.264 0-96.596-43.332-96.596-96.596V154.168c0-53.264 43.332-96.596 96.596-96.596h1.632c53.264 0 96.596 43.332 96.596 96.596v64.224c0 53.26-43.332 96.592-96.596 96.592z m-1.632-241.416c-44.44 0-80.596 36.156-80.596 80.596v64.224c0 44.44 36.156 80.596 80.596 80.596h1.632c44.44 0 80.596-36.156 80.596-80.596V154.168c0-44.44-36.156-80.596-80.596-80.596h-1.632z" fill="#3762CC" p-id="3891"></path><path d="M740.896 590.312c-10.316-2.44-17.484-10.724-17.484-20.18 0-103.396-94.652-187.216-211.416-187.216-116.76 0-211.416 83.82-211.416 187.216 0 9.456-7.164 17.74-17.484 20.18-89.128 21.092-154.784 93.04-154.784 178.616v4.576c0 102.132 93.496 184.928 208.832 184.928h349.704c115.336 0 208.832-82.796 208.832-184.928v-4.576c0-85.576-65.656-157.528-154.784-178.616z" fill="#4671C6" p-id="3892"></path><path d="M686.848 966.432H337.152c-119.564 0-216.832-86.548-216.832-192.928v-4.576c0-87.324 66.18-163.976 160.94-186.4 6.668-1.58 11.324-6.676 11.324-12.396 0-107.644 98.428-195.216 219.416-195.216s219.416 87.576 219.416 195.216c0 5.72 4.656 10.82 11.324 12.396 94.76 22.424 160.94 99.076 160.94 186.4v4.576c0 106.38-97.268 192.928-216.832 192.928zM512 390.912c-112.164 0-203.416 80.396-203.416 179.216 0 13.172-9.72 24.672-23.64 27.968-87.504 20.708-148.624 90.956-148.624 170.832v4.576c0 97.56 90.092 176.928 200.832 176.928h349.696c110.74 0 200.832-79.372 200.832-176.928v-4.576c0-79.872-61.116-150.12-148.624-170.832-13.92-3.292-23.64-14.792-23.64-27.968 0-98.82-91.252-179.216-203.416-179.216z" fill="#3762CC" p-id="3893"></path><path d="M512 696m-200 0a200 200 0 1 0 400 0 200 200 0 1 0-400 0Z" fill="#F9A7A7" p-id="3894"></path><path d="M512 696m-142.856 0a142.856 142.856 0 1 0 285.712 0 142.856 142.856 0 1 0-285.712 0Z" fill="#F9CFCF" p-id="3895"></path><path d="M512 705.524a9.524 9.524 0 0 1-9.524-9.524v-76.16a9.524 9.524 0 1 1 19.048 0V696a9.524 9.524 0 0 1-9.524 9.524z" fill="#6BDDDD" p-id="3896"></path><path d="M502.46 696c0-5.26 3.412-9.524 7.62-9.524h60.948c4.208 0 7.62 4.264 7.62 9.524s-3.412 9.524-7.62 9.524H510.08c-4.204 0-7.62-4.264-7.62-9.524z" fill="#6BDDDD" p-id="3897"></path><path d="M645.448 706.444h-28.8c-5.3 0-9.6-5.372-9.6-12s4.3-12 9.6-12h28.8c5.3 0 9.6 5.372 9.6 12s-4.3 12-9.6 12zM407.352 706.444h-28.8c-5.3 0-9.6-5.372-9.6-12s4.3-12 9.6-12h28.8c5.3 0 9.6 5.372 9.6 12s-4.296 12-9.6 12zM500 591.384v-28.8c0-5.3 5.372-9.6 12-9.6s12 4.3 12 9.6v28.8c0 5.3-5.372 9.6-12 9.6s-12-4.3-12-9.6zM500 827.892v-28.8c0-5.3 5.372-9.6 12-9.6s12 4.3 12 9.6v28.8c0 5.3-5.372 9.6-12 9.6s-12-4.3-12-9.6z" fill="#4671C6" p-id="3898"></path></svg>